<?xml version="1.0" encoding="utf-8"?>
<!-- Generator: Adobe Illustrator 24.1.0, SVG Export Plug-In . SVG Version: 6.00 Build 0)  -->
<svg version="1.1" id="Layer_1" xmlns="http://www.w3.org/2000/svg" xmlns:xlink="http://www.w3.org/1999/xlink" x="0px" y="0px"
	 viewBox="0 0 512 512" style="enable-background:new 0 0 512 512;" xml:space="preserve">
<style type="text/css">
	.st0{fill:#FFFFFF;}
</style>
<path class="st0" d="M455.3,32H56.7C43.1,32,32,43.1,32,56.7v398.5c0,13.7,11.1,24.7,24.7,24.7H256V304h-53.6v-64H256v-51
	c0-57.9,40.1-89.4,91.8-89.4c24.7,0,51.3,1.9,57.5,2.7v60.4h-41.2c-28.1,0-33.5,13.3-33.5,32.9V240h67l-8.8,64h-58.2v176h124.6
	c13.7,0,24.7-11.1,24.7-24.7V56.7C480,43.1,468.9,32,455.3,32z"/>
</svg>
